PathFileType	4	(X/Y/Z)	..\data\SUBJ01\static\static.trc
DataRate	CameraRate	NumFrames	NumMarkers	Units	OrigDataRate	OrigDataStartFrame	OrigNumFrames
100.000000	100.000000	4	33	mm	100.000000	20	82
Frame#	Time	LFHD			RFHD			LBHD			RBHD			C7			T10			CLAV			STRN			LSHO			LELB			LWRA			LWRB			LFIN			RSHO			RELB			RWRA			RWRB			RFIN			LASI			RASI			SACR			LTHI			LKNE			LTIB			LANK			LHEE			LTOE			RTHI			RKNE			RTIB			RANK			RHEE			RTOE			
		X1	Y1	Z1	X2	Y2	Z2	X3	Y3	Z3	X4	Y4	Z4	X5	Y5	Z5	X6	Y6	Z6	X7	Y7	Z7	X8	Y8	Z8	X9	Y9	Z9	X10	Y10	Z10	X11	Y11	Z11	X12	Y12	Z12	X13	Y13	Z13	X14	Y14	Z14	X15	Y15	Z15	X16	Y16	Z16	X17	Y17	Z17	X18	Y18	Z18	X19	Y19	Z19	X20	Y20	Z20	X21	Y21	Z21	X22	Y22	Z22	X23	Y23	Z23	X24	Y24	Z24	X25	Y25	Z25	X26	Y26	Z26	X27	Y27	Z27	X28	Y28	Z28	X29	Y29	Z29	X30	Y30	Z30	X31	Y31	Z31	X32	Y32	Z32	X33	Y33	Z33	

21	0.2	-130.5589599609375	1571.982666015625	-206.5645904541016	-159.9252166748047	1541.263671875	-88.32208251953126	-269.8180541992188	1480.892333984375	-247.5108184814454	-297.6139221191407	1456.1298828125	-120.0136108398438	-316.2624511718751	1368.938720703125	-174.7906036376953	-368.9755859375001	1144.239624023438	-182.4205932617188	-163.9385070800782	1277.904907226563	-184.6655731201172	-96.38012695312503	1124.921142578125	-180.9846343994141	-240.1369323730469	1315.438720703125	-351.5929870605469	-158.3709259033203	1090.001586914063	-508.6731872558595	-48.67169189453126	878.613464355469	-564.1225585937501	-47.82768630981446	912.3128051757815	-622.1213989257814	-18.375638961792	809.6174926757815	-616.1182861328126	-229.9885253906251	1308.468505859375	-8.005783081054689	-200.6310577392579	1091.424682617188	175.6134033203125	-156.636474609375	846.892761230469	237.8577575683594	-155.9241943359375	895.3167114257815	302.1141052246094	-126.7952270507813	788.3858642578127	290.1236267089844	-153.7830200195313	885.1666259765627	-315.0618896484376	-157.624740600586	888.5513916015627	-33.2388038635254	-330.1979675292969	886.3038330078127	-172.6665649414063	-247.2301483154297	619.8818359375001	-383.3220214843751	-236.2672576904297	438.8598022460939	-301.8228149414063	-274.4070739746094	200.0014038085938	-331.8079528808594	-256.7770996093751	67.18124389648439	-270.2445678710938	-314.7493591308594	52.96941375732423	-228.9272613525391	-148.361068725586	49.11933517456056	-244.1628875732422	-220.1182403564454	599.8574829101564	12.5871639251709	-226.0564575195313	446.2506408691407	-51.48725509643556	-246.7584381103516	189.9750366210938	-27.98718070983887	-268.5261840820313	67.68182373046876	-85.62506103515626	-317.0851135253907	59.23255538940431	-142.7944641113282	-154.8832397460938	47.70641326904298	-95.75978088378908	
22	0.21	-130.6469116210938	1572.081909179688	-206.465316772461	-159.9771423339844	1541.3251953125	-88.20112609863283	-269.8223571777344	1480.926635742188	-247.4966430664063	-297.6918640136719	1456.078979492188	-119.9617233276367	-316.2267761230469	1368.956420898438	-174.7341766357422	-368.9750366210938	1144.235717773438	-182.4165496826172	-163.9943542480469	1277.903076171875	-184.6195678710938	-96.32800292968753	1124.997680664063	-181.0377502441407	-240.1155700683594	1315.52099609375	-351.5235595703126	-158.4535217285157	1090.03173828125	-508.7630615234376	-48.70434951782228	878.6541137695315	-564.2609863281251	-47.90023040771485	912.3760375976565	-622.2658081054689	-18.43116569519043	809.7038574218752	-616.2335815429689	-229.8047637939454	1308.467651367188	-8.126770973205568	-200.6351013183594	1091.434692382813	175.6562194824219	-156.4619598388672	846.916198730469	237.8141479492188	-155.8997344970703	895.2678222656252	302.0990905761719	-126.6150665283203	788.461120605469	290.0728759765626	-153.7702026367188	885.1692504882815	-315.1146240234376	-157.5957183837891	888.4934692382815	-33.33097076416016	-330.2334289550782	886.2651367187502	-172.7637481689453	-247.3416595458985	619.8729858398439	-383.1848754882813	-236.2548065185547	438.7946166992189	-301.8521423339844	-274.3539733886719	200.0574645996094	-331.9638366699219	-256.7788391113282	67.21189880371095	-270.2195434570313	-314.7669982910157	52.92267227172853	-228.9011383056641	-148.3885955810547	49.11173629760744	-244.1936187744141	-220.0587768554688	599.9129638671876	12.47787857055664	-225.0069885253907	445.6231384277345	-52.27976989746095	-246.7910308837891	189.9032745361328	-27.97883224487305	-268.6846923828126	67.8126678466797	-85.53946685791017	-317.1152038574219	59.16796112060548	-142.7766418457032	-154.8857421875	47.67963409423829	-95.76256561279298	
23	0.22	-130.7135620117188	1571.996337890625	-206.3954772949219	-159.8370971679688	1541.16455078125	-88.30847167968751	-269.8912048339844	1480.842651367188	-247.4631805419922	-297.6480407714844	1456.001953125	-119.8822402954102	-316.2970275878907	1368.896484375	-174.7033386230469	-368.9841003417969	1144.230590820313	-182.3870544433594	-164.0198059082032	1277.919921875	-184.5697174072266	-96.26247406005862	1124.98779296875	-181.126937866211	-240.2704010009766	1315.505859375	-351.5855712890626	-158.4937438964844	1090.030151367188	-508.8275146484376	-48.75866317749025	878.7822265625002	-564.3881835937501	-48.06541442871095	912.4686279296877	-622.4690551757814	-18.68188095092774	809.7196044921877	-616.4771728515626	-230.0359039306641	1308.412231445313	-7.930380344390871	-200.5940093994141	1091.466430664063	175.7643280029297	-156.3203582763672	846.8690185546877	237.8230438232422	-155.8058776855469	895.2729492187502	302.1638488769532	-126.5196685791016	788.4478149414065	290.2041015625001	-153.7645111083985	885.1735839843752	-315.1368408203126	-157.5936889648438	888.5233154296877	-33.26018142700196	-330.2062683105469	886.2635498046877	-172.8085327148438	-247.2342529296876	619.9077148437501	-383.4470520019532	-236.2546844482422	438.8174133300782	-301.8404235839844	-274.3781127929688	200.0095825195313	-331.9071960449219	-256.8365173339844	67.20831298828126	-270.3005371093751	-314.8031616210938	52.93586349487306	-228.9107208251954	-148.3173370361328	49.13173675537111	-244.1748352050782	-219.9405364990235	599.7785034179689	12.36893558502198	-224.8417205810547	445.4367065429689	-52.35319900512697	-246.8036041259766	189.9217987060547	-27.95725631713868	-268.7920837402344	67.78775787353517	-85.50369262695314	-317.1111145019532	59.15877532958986	-142.7718658447266	-154.8328552246094	47.68071365356446	-95.79189300537111	
24	0.23	-130.7230072021485	1572.046142578125	-206.4072265625001	-159.8907623291016	1541.189086914063	-88.25627899169923	-269.9151306152344	1480.896362304688	-247.4027252197266	-297.6318054199219	1455.998168945313	-119.881103515625	-316.3104553222657	1368.922119140625	-174.6631774902344	-368.9843750000001	1144.198852539063	-182.398178100586	-164.0086822509766	1277.917602539063	-184.6077728271485	-96.35113525390628	1125.001220703125	-181.1808776855469	-240.2775421142579	1315.5185546875	-351.5702514648438	-158.5479125976563	1090.184204101563	-508.8635253906251	-48.79921722412111	878.915954589844	-564.5878295898439	-48.13220977783205	912.5283813476565	-622.6337280273439	-18.70379066467286	809.8515625000002	-616.6970214843751	-230.0312194824219	1308.419311523438	-7.861078262329103	-200.5765533447266	1091.513916015625	175.8568267822266	-156.1757202148438	846.966735839844	237.8017272949219	-155.7827911376953	895.317321777344	302.2794494628907	-126.368766784668	788.4699707031252	290.1448364257813	-153.7645111083985	885.1737060546877	-315.1365051269532	-157.6312866210938	888.5517578125002	-33.22171783447266	-330.1556091308594	886.2671508789065	-172.8318481445313	-247.2141113281251	619.8677368164064	-383.2835083007813	-236.2452087402344	438.830535888672	-301.8886413574219	-274.4129028320313	200.0382232666016	-331.8815917968751	-256.7590332031251	67.2261199951172	-270.2298583984376	-314.8140869140626	52.9005699157715	-228.9098052978516	-148.3740539550782	49.11388778686525	-244.1613006591797	-219.8542785644532	599.7647705078126	12.30780982971192	-225.0341033935547	445.5422973632814	-52.22475051879884	-246.8641357421876	189.9615936279297	-27.95741653442384	-268.7283630371094	67.8155975341797	-85.48877716064455	-317.0491333007813	59.14612960815431	-142.7148590087891	-154.9210662841797	47.67949676513673	-95.71768951416017	
